<svg xmlns="http://www.w3.org/2000/svg" xmlns:xlink="http://www.w3.org/1999/xlink" width="600" height="110" viewBox="0 0 600 110">
  <defs>
    <clipPath id="clip-Artboard_3">
      <rect width="600" height="110"/>
    </clipPath>
  </defs>
  <g id="Artboard_3" data-name="Artboard – 3" clip-path="url(#clip-Artboard_3)">
    <rect width="600" height="110" fill="#fff"/>
    <path id="Path_997" data-name="Path 997" d="M780,2037.333l-112-30-282,39.333-206-4V2106H780Z" transform="translate(-180 -1994)"/>
    <text id="www.elshowdelfutsal.com" transform="translate(25 95)" fill="#fff" font-size="20" font-family="SegoeUI, Segoe UI" letter-spacing="0.05em"><tspan x="0" y="0">www.elshowdelfutsal.com</tspan></text>
    <g id="organismo_redessociales_footer" data-name="organismo/redessociales/footer" transform="translate(450.277 72.212)">
      <g id="Group_58" data-name="Group 58">
        <g id="Group_51" data-name="Group 51">
          <path id="Path_710" data-name="Path 710" d="M950.574,173.5a11.756,11.756,0,1,1,11.407-11.751A11.6,11.6,0,0,1,950.574,173.5Zm0-22.239a10.493,10.493,0,1,0,10.181,10.488A10.35,10.35,0,0,0,950.574,151.263Z" transform="translate(-939.168 -150)" fill="#fff"/>
        </g>
        <g id="Group_57" data-name="Group 57" transform="translate(4.717 6.276)">
          <g id="Group_52" data-name="Group 52">
            <path id="Path_711" data-name="Path 711" d="M958.905,159.476a5.489,5.489,0,0,1-1.343.384c.217-.036.535-.428.663-.586a2.481,2.481,0,0,0,.448-.814c.011-.023.02-.052,0-.07a.076.076,0,0,0-.071.007,6.88,6.88,0,0,1-1.6.61.106.106,0,0,1-.11-.029,1.368,1.368,0,0,0-.139-.143,2.821,2.821,0,0,0-.773-.473,2.685,2.685,0,0,0-1.185-.191,2.837,2.837,0,0,0-1.125.318,2.9,2.9,0,0,0-.907.741,2.783,2.783,0,0,0-.542,1.085,2.938,2.938,0,0,0-.028,1.146c.009.064,0,.073-.055.064a8.523,8.523,0,0,1-5.482-2.79c-.064-.073-.1-.073-.151.006a2.779,2.779,0,0,0,.474,3.284c.107.1.217.2.336.3a2.8,2.8,0,0,1-1.058-.3c-.064-.041-.1-.017-.1.055a1.671,1.671,0,0,0,.018.314,2.812,2.812,0,0,0,1.733,2.241,1.622,1.622,0,0,0,.351.108,3.122,3.122,0,0,1-1.038.032c-.076-.015-.1.023-.076.1a2.921,2.921,0,0,0,2.18,1.826c.1.017.2.017.3.04-.006.009-.012.009-.017.017a3.451,3.451,0,0,1-1.489.789,5.317,5.317,0,0,1-2.261.289c-.121-.017-.147-.016-.18,0s0,.05.035.081c.154.1.311.193.471.28a7.473,7.473,0,0,0,1.511.6,8.05,8.05,0,0,0,7.815-1.827,8.2,8.2,0,0,0,2.163-5.983c0-.086.1-.134.162-.179a5.252,5.252,0,0,0,1.058-1.107.318.318,0,0,0,.066-.211v-.012C958.955,159.44,958.96,159.451,958.905,159.476Z" transform="translate(-945.66 -158.163)" fill="#fff"/>
          </g>
          <g id="Group_53" data-name="Group 53" transform="translate(3.949 10.904)">
            <path id="Path_712" data-name="Path 712" d="M951.095,173.171Z" transform="translate(-951.095 -173.171)" fill="#fff" fill-rule="evenodd"/>
          </g>
          <g id="Group_54" data-name="Group 54" transform="translate(3.848 10.904)">
            <path id="Path_713" data-name="Path 713" d="M951.057,173.171Z" transform="translate(-950.955 -173.171)" fill="#fff" fill-rule="evenodd"/>
          </g>
          <g id="Group_55" data-name="Group 55" transform="translate(4.397 10.906)">
            <path id="Path_714" data-name="Path 714" d="M951.711,173.183c0-.023.235,0,0,0C951.711,173.172,951.739,173.183,951.711,173.183Z" transform="translate(-951.711 -173.173)" fill="#fff" fill-rule="evenodd"/>
          </g>
          <g id="Group_56" data-name="Group 56" transform="translate(9.044 0.016)">
            <path id="Path_715" data-name="Path 715" d="M958.162,158.185a.048.048,0,0,1-.055,0Z" transform="translate(-958.107 -158.185)" fill="#fff" fill-rule="evenodd"/>
          </g>
        </g>
      </g>
      <g id="Group_61" data-name="Group 61" transform="translate(35.321)">
        <g id="Group_59" data-name="Group 59">
          <path id="Path_716" data-name="Path 716" d="M997.476,173.5a11.756,11.756,0,1,1,11.406-11.751A11.6,11.6,0,0,1,997.476,173.5Zm0-22.239a10.493,10.493,0,1,0,10.181,10.488A10.35,10.35,0,0,0,997.476,151.263Z" transform="translate(-986.07 -150)" fill="#fff"/>
        </g>
        <g id="Group_60" data-name="Group 60" transform="translate(8.218 4.914)">
          <path id="Path_717" data-name="Path 717" d="M998.78,163.18v6.611a.172.172,0,0,0,.172.172h2.455a.172.172,0,0,0,.172-.172v-6.719h1.78a.172.172,0,0,0,.172-.158l.171-2.024a.172.172,0,0,0-.171-.187h-1.951v-1.436a.609.609,0,0,1,.61-.61h1.372a.172.172,0,0,0,.172-.172v-2.024a.172.172,0,0,0-.172-.172h-2.318a2.463,2.463,0,0,0-2.463,2.463V160.7h-1.228a.172.172,0,0,0-.172.172V162.9a.172.172,0,0,0,.172.172h1.228Z" transform="translate(-997.38 -156.289)" fill="#fff" fill-rule="evenodd"/>
        </g>
      </g>
      <g id="Group_65" data-name="Group 65" transform="translate(105.808 0.286)">
        <g id="Group_62" data-name="Group 62" transform="translate(0)">
          <path id="Path_718" data-name="Path 718" d="M1091.757,173.946a11.757,11.757,0,1,1,11.407-11.751A11.6,11.6,0,0,1,1091.757,173.946Zm0-22.24a10.493,10.493,0,1,0,10.181,10.489A10.35,10.35,0,0,0,1091.757,151.706Z" transform="translate(-1080.351 -150.443)" fill="#fff"/>
        </g>
        <g id="Group_64" data-name="Group 64" transform="translate(4.78 7.095)">
          <g id="Group_63" data-name="Group 63">
            <path id="Path_719" data-name="Path 719" d="M1100.387,162.66a2.93,2.93,0,0,0-2.93-2.93h-7.6a2.929,2.929,0,0,0-2.93,2.93v3.561a2.929,2.929,0,0,0,2.93,2.929h7.6a2.93,2.93,0,0,0,2.93-2.929Zm-4.794,1.96-3.03,1.662c-.132.072-.251-.024-.251-.174V162.7c0-.152.122-.246.254-.171l3.051,1.749A.2.2,0,0,1,1095.593,164.619Z" transform="translate(-1086.93 -159.73)" fill="#fff"/>
          </g>
        </g>
      </g>
      <g id="Group_66" data-name="Group 66" transform="translate(70.638 0.286)">
        <path id="Path_720" data-name="Path 720" d="M1044.617,173.747a11.682,11.682,0,1,1,11.332-11.677A11.522,11.522,0,0,1,1044.617,173.747Zm0-22.244a10.572,10.572,0,1,0,10.255,10.567A10.427,10.427,0,0,0,1044.617,151.5Zm3.821,5.83a.864.864,0,1,0,.838.864A.852.852,0,0,0,1048.438,157.332Zm-3.728,1.108a3.631,3.631,0,1,0,3.523,3.63A3.582,3.582,0,0,0,1044.71,158.44Zm0,5.955a2.326,2.326,0,1,1,2.257-2.325A2.294,2.294,0,0,1,1044.71,164.4Zm7.108-5.342a4.363,4.363,0,0,0-4.3-4.427h-5.67a4.363,4.363,0,0,0-4.3,4.427V164.9a4.363,4.363,0,0,0,4.3,4.427h5.67a4.363,4.363,0,0,0,4.3-4.427Zm-1.346,5.843a3,3,0,0,1-2.951,3.04h-5.67a3,3,0,0,1-2.951-3.04v-5.843a3,3,0,0,1,2.951-3.04h5.67a3,3,0,0,1,2.951,3.04Z" transform="translate(-1033.285 -150.393)" fill="#fff"/>
      </g>
    </g>
  </g>
</svg>
