<?xml version="1.0" standalone="no"?>
<!DOCTYPE svg PUBLIC "-//W3C//DTD SVG 20010904//EN"
 "http://www.w3.org/TR/2001/REC-SVG-20010904/DTD/svg10.dtd">
<svg version="1.0" xmlns="http://www.w3.org/2000/svg"
 width="600.000000pt" height="222.000000pt" viewBox="0 0 600.000000 222.000000"
 preserveAspectRatio="xMidYMid meet">
<metadata>
Created by potrace 1.16, written by Peter Selinger 2001-2019
</metadata>
<g transform="translate(0.000000,222.000000) scale(0.100000,-0.100000)"
fill="#000000" stroke="none">
<path d="M4376 1900 c-372 -300 -400 -320 -438 -320 -27 0 -2715 -109 -3033
-123 -18 -1 -21 -7 -20 -46 0 -26 -4 -46 -10 -46 -5 0 -10 21 -10 47 l1 46
-46 -5 c-25 -2 -70 -5 -100 -7 l-55 -1 0 -215 c-1 -133 -5 -214 -11 -213 -5 1
-9 -30 -9 -72 0 -58 2 -71 12 -63 7 6 13 7 13 2 0 -4 4 -4 10 2 5 5 28 8 50 6
35 -4 40 -7 40 -29 0 -21 -4 -24 -30 -20 -28 5 -48 -7 -48 -28 0 -21 20 -33
48 -28 27 4 30 1 30 -21 0 -23 -4 -26 -35 -27 -19 -1 -41 -2 -47 -3 -7 -1 -20
3 -28 10 -13 11 -15 -16 -15 -240 l0 -252 87 -3 c49 -1 88 2 88 7 0 5 43 7 98
6 53 -2 1079 23 2279 56 1200 33 2227 60 2282 60 102 0 121 8 80 32 -34 21
-137 157 -184 242 -106 198 -138 449 -84 679 14 61 77 190 131 271 56 82 171
208 236 257 67 51 217 124 288 140 l54 12 0 104 0 103 -613 0 -612 0 -399
-320z m-3521 -500 c-1 -22 4 -45 11 -51 17 -14 29 7 29 55 0 27 5 40 15 41 13
2 15 -33 15 -270 0 -206 -3 -272 -12 -272 -7 0 -9 5 -6 10 3 6 2 7 -3 4 -6 -3
-9 37 -9 102 0 79 -3 108 -12 108 -7 0 -10 -4 -7 -8 2 -4 -5 -6 -16 -4 -13 3
-18 0 -14 -7 4 -6 3 -8 -2 -5 -6 3 -9 -34 -9 -94 0 -55 -2 -102 -5 -104 -3 -2
-5 52 -5 120 0 74 4 123 10 122 5 -1 9 57 9 150 1 83 3 150 7 148 3 -3 5 -22
4 -45z m-130 -12 c1 -27 -3 -46 -9 -45 -7 1 -10 -76 -10 -220 -1 -122 -3 -221
-6 -221 -3 0 -7 -1 -10 -2 -31 -12 -36 -6 -35 45 0 29 5 59 11 66 6 9 10 91
10 220 l-1 206 25 -2 c22 -1 25 -5 25 -47z m160 -377 c-1 -53 2 -101 7 -107 4
-6 2 -11 -5 -11 -9 0 -13 26 -12 99 0 55 -2 101 -5 103 -4 3 -6 -300 -1 -314
0 -2 7 1 14 7 7 7 13 28 12 49 -2 48 8 61 42 56 28 -5 28 -5 28 -79 l0 -75
-35 1 c-19 1 -39 1 -45 0 -5 -1 -12 -2 -15 -2 -3 0 -5 -67 -5 -149 0 -93 -4
-149 -10 -149 -6 0 -10 56 -10 149 0 82 -2 147 -5 145 -9 -10 -6 -312 4 -307
5 4 6 0 1 -7 -6 -9 -4 -11 5 -5 8 5 11 4 7 -2 -3 -5 0 -10 8 -10 8 0 11 5 8
10 -3 6 -2 8 3 4 6 -3 9 58 9 153 0 95 3 156 9 153 5 -4 6 -1 1 7 -5 7 -4 11
1 7 5 -3 9 -106 9 -234 l0 -228 -40 0 -40 0 -1 230 c0 151 -5 240 -12 258 -7
16 -12 51 -12 78 0 48 5 54 40 51 3 0 5 43 5 96 -1 97 4 119 28 119 9 0 12
-24 12 -96z m2735 -155 l0 -115 -70 0 c-60 0 -72 3 -85 22 -18 26 -19 60 -4
90 16 30 28 37 67 37 31 0 32 2 32 40 0 38 2 40 30 40 l30 0 0 -114z m-1258
77 c28 -25 24 -77 -8 -102 -15 -12 -37 -21 -50 -21 -21 0 -24 -5 -24 -35 0
-32 -2 -35 -30 -35 l-30 0 0 105 0 105 62 0 c43 0 67 -5 80 -17z m-1212 -63
c5 -10 10 -36 10 -58 0 -51 -26 -76 -75 -70 -35 4 -35 4 -35 -34 0 -34 -3 -38
-25 -38 l-25 0 0 109 0 109 70 1 c59 0 71 -3 80 -19z m173 8 c9 -7 20 -28 23
-45 l7 -33 -52 0 c-32 0 -50 -4 -46 -10 3 -5 22 -10 41 -10 27 0 34 -4 34 -20
0 -17 -7 -20 -47 -20 -57 0 -68 6 -83 44 -12 32 -6 62 18 89 18 20 80 23 105
5z m309 -5 c13 -12 18 -31 18 -74 l0 -57 -65 -1 c-59 0 -67 2 -76 23 -16 34 3
62 48 75 l38 11 -37 -5 c-31 -3 -38 -1 -38 14 0 10 3 21 7 24 13 14 87 7 105
-10z m338 -33 c0 -37 4 -52 16 -57 22 -8 34 14 34 65 0 38 2 42 25 42 24 0 25
-2 25 -74 l0 -74 -62 -1 c-34 0 -68 5 -75 11 -8 6 -13 34 -13 74 0 62 1 64 25
64 23 0 25 -3 25 -50z m552 33 c13 -12 18 -31 18 -74 l0 -57 -65 -1 c-59 0
-67 2 -76 23 -16 34 3 62 48 75 l38 11 -37 -5 c-31 -3 -38 -1 -38 14 0 10 3
21 7 24 13 14 87 7 105 -10z m404 -30 l8 -48 14 48 c12 43 16 48 40 45 22 -2
28 -11 38 -48 8 -32 12 -38 13 -20 2 51 13 70 37 70 29 0 29 2 6 -80 -17 -61
-21 -65 -50 -68 -28 -3 -31 0 -38 32 -7 41 -19 40 -27 -4 -6 -25 -11 -30 -35
-30 -27 0 -31 4 -47 62 -9 34 -19 68 -22 75 -4 9 4 13 25 13 29 0 31 -3 38
-47z m344 27 c12 -12 20 -33 20 -55 0 -49 -29 -75 -82 -75 -49 0 -60 6 -77 37
-16 32 -14 57 10 87 27 34 98 37 129 6z m-2580 -145 c13 2 15 -21 15 -160 0
-101 -4 -163 -10 -162 -5 1 -9 -28 -9 -69 0 -59 -3 -71 -16 -69 -13 2 -15 34
-15 238 0 157 3 233 10 228 5 -5 17 -7 25 -6z"/>
<path d="M905 1402 c2 -41 -21 -78 -39 -63 -8 7 -11 -17 -11 -87 1 -70 -2
-102 -13 -114 -11 -13 -11 -16 0 -14 7 1 18 4 23 7 6 3 17 5 25 5 12 -1 15
-19 15 -103 0 -56 2 -104 5 -106 3 -3 5 109 5 248 0 139 -3 256 -6 259 -3 3
-5 -11 -4 -32z"/>
<path d="M290 2000 c-11 -11 -20 -29 -20 -39 0 -24 36 -51 67 -51 13 0 23 -5
23 -10 0 -16 -33 -26 -38 -12 -4 14 -52 16 -52 2 0 -19 40 -50 65 -50 34 0 77
43 69 67 -9 26 -34 43 -61 43 -14 0 -23 6 -23 15 0 17 25 20 35 5 9 -15 45
-12 45 4 0 20 -39 46 -67 46 -13 0 -32 -9 -43 -20z"/>
<path d="M420 1930 c0 -83 1 -90 20 -90 16 0 20 7 20 35 0 28 4 35 19 35 15 0
21 -8 23 -32 2 -25 8 -33 23 -33 18 0 20 8 23 88 3 87 2 88 -20 85 -18 -2 -24
-10 -26 -35 -2 -25 -8 -33 -23 -33 -15 0 -19 7 -19 35 0 28 -4 35 -20 35 -19
0 -20 -7 -20 -90z"/>
<path d="M589 1991 c-54 -54 -25 -135 53 -148 32 -5 41 -1 68 25 40 41 41 83
1 123 -20 20 -39 29 -61 29 -22 0 -41 -9 -61 -29z"/>
<path d="M740 2008 c0 -7 12 -48 26 -90 20 -61 30 -78 45 -78 12 0 21 9 25 25
3 14 10 25 14 25 4 0 11 -11 14 -25 4 -16 13 -25 25 -25 15 0 25 17 45 78 31
92 32 102 7 102 -13 0 -22 -12 -31 -45 -14 -51 -25 -57 -34 -20 -9 34 -43 34
-52 -1 -8 -30 -17 -22 -34 29 -8 26 -17 37 -31 37 -10 0 -19 -6 -19 -12z"/>
<path d="M735 1795 c-14 -13 -25 -29 -25 -35 0 -19 40 -50 65 -50 16 0 25 -6
25 -15 0 -17 -21 -20 -37 -4 -6 6 -21 9 -34 7 l-24 -3 27 -27 c16 -16 38 -28
53 -28 30 0 65 32 65 59 0 24 -36 51 -67 51 -24 0 -31 14 -12 26 6 3 16 1 22
-5 18 -18 47 -13 47 7 0 19 -37 42 -66 42 -8 0 -26 -11 -39 -25z"/>
<path d="M926 1812 c-6 -10 -66 -161 -66 -167 0 -12 41 -3 46 10 8 20 61 19
72 -1 5 -9 18 -14 29 -12 21 3 20 6 -14 91 -31 78 -52 103 -67 79z"/>
<path d="M412 1746 c5 -75 25 -106 70 -106 48 0 68 30 68 105 0 58 -2 65 -20
65 -16 0 -19 -8 -22 -62 -3 -55 -5 -63 -23 -63 -18 0 -20 8 -23 63 -3 59 -4
62 -29 62 -25 0 -25 -1 -21 -64z"/>
<path d="M5982 1714 c-7 -8 -10 -19 -6 -26 5 -7 0 -9 -14 -6 -15 4 -35 -7 -74
-43 -29 -27 -45 -46 -35 -43 9 3 17 1 17 -5 0 -6 9 -11 19 -11 10 0 22 -8 25
-17 6 -14 9 -15 15 -4 7 11 10 9 15 -7 5 -14 12 -19 23 -15 9 4 14 2 11 -3 -3
-5 0 -15 8 -22 12 -11 14 4 14 103 0 63 -1 115 -2 115 -2 -1 -9 -7 -16 -16z"/>
<path d="M5787 1527 c-16 -11 -9 -18 59 -67 43 -30 95 -77 116 -104 l39 -49
-2 60 -2 59 -54 37 c-30 21 -59 34 -65 31 -7 -5 -8 -2 -3 6 6 10 4 12 -11 6
-10 -4 -15 -4 -11 0 7 8 -22 33 -39 34 -5 0 -18 -6 -27 -13z"/>
<path d="M5657 1271 c-20 -80 -21 -149 -6 -237 10 -61 11 -62 47 -68 93 -16
240 -36 270 -36 l32 0 0 165 c0 109 -4 165 -11 165 -5 0 -8 -4 -5 -9 4 -5 -3
-7 -13 -4 -16 4 -19 1 -14 -16 3 -13 1 -21 -6 -21 -7 0 -10 4 -6 9 3 5 0 13
-6 17 -8 5 -9 3 -4 -6 6 -10 4 -12 -8 -7 -10 3 -17 2 -17 -3 0 -6 6 -10 13
-10 8 0 7 -4 -3 -10 -18 -12 -33 -13 -27 -2 3 4 -8 7 -24 8 -16 1 -29 -3 -29
-9 0 -5 -7 -4 -15 3 -8 7 -15 10 -15 6 0 -6 -32 20 -84 68 -17 16 -25 25 -17
21 9 -5 7 1 -5 18 -10 15 -22 27 -25 27 -3 0 -13 -31 -22 -69z"/>
<path d="M5695 883 c49 -109 149 -214 258 -269 l47 -24 0 129 0 129 -72 18
c-40 9 -111 30 -157 46 -47 15 -88 28 -93 28 -4 0 4 -26 17 -57z"/>
</g>
</svg>
