<?xml version="1.0" standalone="no"?>
<!DOCTYPE svg PUBLIC "-//W3C//DTD SVG 20010904//EN"
 "http://www.w3.org/TR/2001/REC-SVG-20010904/DTD/svg10.dtd">
<svg version="1.0" xmlns="http://www.w3.org/2000/svg"
 width="600.000000pt" height="110.000000pt" viewBox="0 0 600.000000 110.000000"
 preserveAspectRatio="xMidYMid meet">
<metadata>
Created by potrace 1.16, written by Peter Selinger 2001-2019
</metadata>
<g transform="translate(0.000000,110.000000) scale(0.100000,-0.100000)"
fill="#000000" stroke="none">
<path d="M3461 770 l-1404 -198 -916 19 c-504 10 -967 18 -1028 19 l-113 0 0
-305 0 -305 3000 0 3000 0 0 335 c0 184 -2 335 -5 335 -3 0 -257 68 -564 150
-308 83 -561 149 -563 149 -2 -1 -635 -90 -1407 -199z m1203 -405 c40 -19 66
-62 66 -109 0 -48 -50 -105 -100 -112 -75 -11 -144 71 -121 146 16 53 54 84
109 89 8 0 28 -6 46 -14z m350 1 c46 -19 66 -52 66 -107 0 -56 -25 -93 -75
-109 -75 -25 -145 29 -145 112 0 51 21 85 64 104 40 17 49 17 90 0z m377 -17
c75 -53 46 -187 -46 -205 -77 -14 -142 50 -132 130 12 84 108 125 178 75z
m347 5 c26 -18 52 -65 52 -94 0 -60 -58 -120 -115 -120 -38 0 -82 29 -100 66
-19 40 -19 67 0 104 21 41 53 60 100 60 22 0 51 -7 63 -16z"/>
<path d="M4546 329 c-55 -65 -15 -171 66 -171 19 0 45 5 57 11 24 13 51 61 51
91 0 29 -27 77 -49 90 -11 5 -38 10 -59 10 -33 0 -45 -6 -66 -31z"/>
<path d="M4899 331 c-64 -65 -20 -171 71 -171 58 0 100 42 100 100 0 91 -106
135 -171 71z"/>
<path d="M5264 345 c-70 -48 -47 -169 36 -190 96 -23 162 105 91 176 -33 33
-91 40 -127 14z m114 -23 c18 -12 26 -72 13 -104 -13 -34 -65 -47 -108 -26
-23 11 -29 20 -31 55 -5 65 10 83 66 83 26 0 53 -4 60 -8z"/>
<path d="M5621 344 c-60 -42 -58 -138 2 -174 40 -25 64 -25 104 0 84 51 46
190 -52 190 -17 0 -41 -7 -54 -16z"/>
</g>
</svg>
